<svg id="Layer_1" data-name="Layer 1" xmlns="http://www.w3.org/2000/svg" viewBox="0 0 408 200"><defs><style>.cls-1{fill:none;}.cls-2{opacity:0.68;}.cls-3{fill:#a79a9d;}.cls-4{fill:#747474;}</style></defs><title>Vector Smart Object - logo</title><path class="cls-1" d="M189.22,90.16C203.69,75.43,217.71,58,223,37.47c3.14-12.3,5.39-38.09-14-35.92-11.56,1.29-21.89,8.5-30.64,15.8a208.59,208.59,0,0,0-24.12,23.81c-28.68,33.21-49.56,73.84-56,117.57,12.89-8.63,26-17,38.74-25.76C155.44,120.19,173.36,106.32,189.22,90.16Z" transform="translate(0 0)"/><g class="cls-2"><path class="cls-3" d="M384.3,150.67l1.5-.18c-38.89,19.89-51.09,22.88-67.57,25.13-24.31,2.09-30.85,1-37.34.48-3.67-.29-15-2.2-23.64-4h0l-.44-.1c-3.22-.66-6.12-1.26-8.22-1.71l-3.38-.72c-17.24-3.81-34.74-8-52.12-9.69a122.06,122.06,0,0,0-36.39,1.54q-5.07,1-10,2.47c-2.72.91-5.46,1.78-8.2,2.64-5.28,1.89-19.57,7-21.05,7.69-.17.47-.36.93-.56,1.38-2.34,5.27-6.17,9.9-10.21,13.93-3.63,3.63-7.77,7.35-12.46,9.5-2.36,1.08-6.81,2-6.7-2.12.07-2.44,1.79-4.59,3.37-6.28a55.44,55.44,0,0,1,7.7-6.65,106.76,106.76,0,0,1,17.67-10.86c1-3.34,1.15-7.31-2.44-8.95-2.73-1.25-6.84.1-9.47,1.08-2.39.87-7.23,2.68-7.63,5.75-.11.92-1.54,1-1.46,0a209.5,209.5,0,0,1,18.24-69.34A259,259,0,0,1,150,43.78a215.79,215.79,0,0,1,23.66-24.42c8.12-7.09,17.06-14.15,27.38-17.54,7.1-2.34,16.07-3.45,21.26,3.18,4.11,5.25,4.48,13,4.11,19.37-1.13,19.67-11,37.29-23.11,52.25-28.72,35.5-68.21,59-105.49,84.06-.33,2.35-.61,4.72-.85,7.08a13.71,13.71,0,0,1,3.2-2.24c4.2-2.24,12.06-5.41,16.07-1.28,2.19,2.26,2.38,5.25,1.72,8.11a186.26,186.26,0,0,1,19.7-7.06c2.83-1,5.7-2,8.58-2.79a13.14,13.14,0,0,1,1.81-.5,118.39,118.39,0,0,1,34.59-4.25c21.7.67,42.81,6.43,63.88,11.2l1.56.35c6.28,1.24,23,4.53,30.77,5.69,46,4.33,69.83-8.37,79.27-12.21C364.54,160.17,384.3,150.67,384.3,150.67ZM223,37.47c3.14-12.3,5.39-38.09-14-35.92-11.56,1.29-21.9,8.5-30.64,15.8a208.59,208.59,0,0,0-24.12,23.81c-28.68,33.21-49.57,73.84-56,117.57,12.89-8.63,26-17,38.74-25.76,18.58-12.78,36.5-26.65,52.36-42.8C203.68,75.42,217.71,58,223,37.47ZM115.21,175.73c.08-.16.15-.32.23-.5a108.44,108.44,0,0,0-11.72,7c-4.6,3.1-9.61,6.45-13,10.92-.88,1.16-2.72,3.81-1.26,5.22.65.62,1.85.28,2.58,0,4.65-1.52,8.82-5.23,12.29-8.56C108.55,185.75,112.67,181.1,115.21,175.73Z" transform="translate(0 0)"/></g><path class="cls-4" d="M37.32,117a11.27,11.27,0,0,1-1.71,3,11.65,11.65,0,0,1-2.36,2.2,11.1,11.1,0,0,1-2.59,1.39,17.67,17.67,0,0,1-5,1c-1.84.11-3.63.17-5.35.17H0v-.59a13,13,0,0,0,2.8-.76,5.45,5.45,0,0,0,2.14-1.47,2.53,2.53,0,0,0,.47-1q.18-.67.33-1.56a17.76,17.76,0,0,0,.2-1.85q.06-1,.06-1.92c0-.55,0-1.29,0-2.23s0-2,.06-3.09,0-2.27,0-3.44V97.66q0-1.29,0-2.64t0-3.12c0-.71,0-1.42-.06-2.15s-.11-1.42-.2-2.09a16.6,16.6,0,0,0-.36-1.79,2.46,2.46,0,0,0-.55-1.15,4.78,4.78,0,0,0-1.77-1.27A11.5,11.5,0,0,0,.65,83v-.59H20.48a32.39,32.39,0,0,1,4.27.27,17.76,17.76,0,0,1,3.91,1A11.78,11.78,0,0,1,33.61,87a8.75,8.75,0,0,1,1.94,5.83,8.26,8.26,0,0,1-2.5,6.27,13.08,13.08,0,0,1-6.51,3.2v.24a16.71,16.71,0,0,1,4.18,1,12.72,12.72,0,0,1,3.68,2.15,10.53,10.53,0,0,1,2.59,3.2,8.92,8.92,0,0,1,1,4.21A10.8,10.8,0,0,1,37.32,117Zm-10-29.37a8.64,8.64,0,0,0-3.74-3.29,16.64,16.64,0,0,0-6.77-1.18,18.75,18.75,0,0,0-2.23.12,8,8,0,0,0-1.53.29c0,.24-.08.45-.12.65a5.8,5.8,0,0,0-.09.73c0,.3,0,.66-.06,1.09s-.05,1-.09,1.71c0,1.37-.06,2.88-.08,4.53s0,3.22,0,4.71v5.65h3.29c.9,0,1.63,0,2.18-.06q5.29-.3,8-3a9,9,0,0,0,2.74-6.71A9.37,9.37,0,0,0,27.28,87.6Zm3.24,23A10.94,10.94,0,0,0,29,107.82a10.13,10.13,0,0,0-2.3-2.18,11.29,11.29,0,0,0-2.91-1.44,13.54,13.54,0,0,0-2.56-.56,25.76,25.76,0,0,0-3-.15H12.54v7.36q0,1.64,0,3c0,.92,0,1.71,0,2.38,0,1.49.1,2.72.2,3.68a4.71,4.71,0,0,0,.85,2.38,4.17,4.17,0,0,0,1.59,1.09,8.4,8.4,0,0,0,3.06.44,33.36,33.36,0,0,0,3.71-.23,11,11,0,0,0,3.89-1.24,9.69,9.69,0,0,0,3.82-3.44,9.4,9.4,0,0,0,1.36-5.15A9.18,9.18,0,0,0,30.52,110.58Z" transform="translate(0 0)"/><path class="cls-4" d="M96.64,124.73H58.86v-.59a15.22,15.22,0,0,0,2.91-.76A5.4,5.4,0,0,0,64,121.91a3.18,3.18,0,0,0,.5-1,10.94,10.94,0,0,0,.32-1.56c.08-.59.15-1.21.21-1.85s.09-1.29.09-1.92,0-1.29,0-2.23,0-2,.06-3.09,0-2.27,0-3.44V89.9c0-.71,0-1.37-.09-2a9.81,9.81,0,0,0-.26-1.62,2.66,2.66,0,0,0-.53-1.12,5.17,5.17,0,0,0-2.21-1.53A12.15,12.15,0,0,0,59.27,83v-.59H78V83c-.51.08-1.11.2-1.82.36a7.13,7.13,0,0,0-2,.76,4.81,4.81,0,0,0-1.62,1.5,4.73,4.73,0,0,0-.74,2.56c0,1.37-.06,2.63-.08,3.77s0,2.25-.06,3.35,0,2.24,0,3.41v10.71c0,1,0,2.07,0,3.15s0,2.29,0,3.62.09,2.45.14,3.59a5.33,5.33,0,0,0,.62,2.53,2.45,2.45,0,0,0,.94.59,9.51,9.51,0,0,0,1.71.5c.67.14,1.39.26,2.18.35a18.54,18.54,0,0,0,2.35.15l1.5,0c.69,0,1.45-.06,2.27-.12s1.67-.14,2.53-.26a17.2,17.2,0,0,0,2.3-.47,13,13,0,0,0,3.91-1.71,12.55,12.55,0,0,0,2.68-2.44,15,15,0,0,0,1.88-3q.76-1.62,1.47-3.39l.59.18Z" transform="translate(0 0)"/><path class="cls-4" d="M140,124.73v-.59a6.3,6.3,0,0,0,.86-.11,7.62,7.62,0,0,0,1.41-.41,4.14,4.14,0,0,0,1.29-.83,1.74,1.74,0,0,0,.56-1.35,8,8,0,0,0-.32-1.74c-.22-.8-.52-1.78-.91-2.94s-.85-2.44-1.36-3.85-1.06-2.89-1.64-4.42H124.19c-.59,1.49-1.16,2.91-1.71,4.27s-1.1,2.72-1.65,4.09a15,15,0,0,0-1.23,4.47,1.77,1.77,0,0,0,.47,1.27,3.63,3.63,0,0,0,1.21.82,6.73,6.73,0,0,0,1.58.47c.57.1,1.11.19,1.62.26v.59H112v-.64a6.63,6.63,0,0,0,2.62-.83,5.83,5.83,0,0,0,1.26-.88,11.68,11.68,0,0,0,1.35-1.94,41.52,41.52,0,0,0,2.3-4.53c.82-1.85,1.75-4,2.77-6.3l3.15-7.27q1.6-3.74,3.2-7.53t3-7.09l-.58-1.3a9.65,9.65,0,0,0,1.91-1.11,11.06,11.06,0,0,0,1.5-1.36,12,12,0,0,0,1.09-1.35c.29-.43.52-.78.68-1.06h.47q1.82,4.89,3.47,9.27c1.1,2.92,2.15,5.74,3.15,8.44l2.91,7.86q1.41,3.8,2.83,7.5.65,1.83,1.2,3l1.27,2.74a7.23,7.23,0,0,0,3.29,3.12,6.26,6.26,0,0,0,2.36.53v.7Zm-7.71-35.66c-.23.51-.58,1.32-1,2.42s-1,2.43-1.67,4-1.41,3.34-2.21,5.32-1.68,4.13-2.62,6.45h14.65c-.66-1.77-1.34-3.53-2-5.3s-1.35-3.46-2-5.09l-1.76-4.47C133.05,91,132.61,89.94,132.25,89.07Z" transform="translate(0 0)"/><path class="cls-4" d="M216.86,84.07a5.21,5.21,0,0,0-2,2.53,9.83,9.83,0,0,0-.53,3.27c-.08,1.59-.16,3.28-.24,5.09s-.14,3.68-.2,6-.09,4.76-.09,7.39v3.76c0,1.38,0,2.78,0,4.21s0,2.85,0,4.26v3.83a.49.49,0,0,1-.15.38.59.59,0,0,1-.44.15,1.64,1.64,0,0,1-1.06-.59q-5-5.76-9.12-10.59l-7.86-9.21q-3.73-4.38-7.33-8.56t-7.59-8.65v24.83c0,2,.05,3.81.15,5.41a9.6,9.6,0,0,0,.73,3.59,4.22,4.22,0,0,0,2,2,11.79,11.79,0,0,0,3.8,1v.59H172.51v-.59a11.47,11.47,0,0,0,2.83-.73,4.59,4.59,0,0,0,2.23-1.85,8.12,8.12,0,0,0,1.06-3.65q.24-2.41.35-5.77.12-2.53.18-6t.06-7.39V91.6q0-1.17-.06-2.88a6.91,6.91,0,0,0-.82-2.8,5.52,5.52,0,0,0-1.53-1.7,5.77,5.77,0,0,0-1.92-.88,15.22,15.22,0,0,0-2-.39v-.59h12l27.9,32.6V95q0-2.35-.06-4.5a10.78,10.78,0,0,0-.53-3.39,5.39,5.39,0,0,0-2.09-2.68A10.49,10.49,0,0,0,205.76,83v-.59h14.6V83A8.9,8.9,0,0,0,216.86,84.07Z" transform="translate(0 0)"/><path class="cls-4" d="M279.45,96a19.83,19.83,0,0,0-2.29-5.3,18.91,18.91,0,0,0-3.62-4.3,16.65,16.65,0,0,0-4.71-2.88,14.83,14.83,0,0,0-5.56-1.06A14.24,14.24,0,0,0,256,84.31a16.61,16.61,0,0,0-5.33,4.82,23,23,0,0,0-3.29,6.8,26.64,26.64,0,0,0-1.15,7.8,25.34,25.34,0,0,0,1.21,7.94,19.58,19.58,0,0,0,3.44,6.44,16.38,16.38,0,0,0,5.41,4.33,15.6,15.6,0,0,0,7.07,1.59,14.87,14.87,0,0,0,5.74-1.12,17.61,17.61,0,0,0,4.76-2.94,17.89,17.89,0,0,0,3.54-4.21,15.91,15.91,0,0,0,2-4.91h.7l-.17,12.94h-.71a18.21,18.21,0,0,0-1.47-1.82c-.51-.55-.87-.83-1.06-.83a5.47,5.47,0,0,0-1.06.62,17.33,17.33,0,0,1-2.71,1.35,24.78,24.78,0,0,1-4.29,1.3,27.39,27.39,0,0,1-5.83.56,29.53,29.53,0,0,1-9.89-1.56,21.46,21.46,0,0,1-7.5-4.41,19.26,19.26,0,0,1-4.74-6.83,22.57,22.57,0,0,1-1.65-8.74,22,22,0,0,1,.15-2.41,20,20,0,0,1,.53-2.89,23,23,0,0,1,1.06-3.2,22.63,22.63,0,0,1,1.73-3.39,21.91,21.91,0,0,1,3.06-3.82,19.37,19.37,0,0,1,4.3-3.21,24,24,0,0,1,5.59-2.2,27.46,27.46,0,0,1,7-.83,26.34,26.34,0,0,1,6.18.65A28.1,28.1,0,0,1,273,83.54,16.76,16.76,0,0,1,275.75,85a4.61,4.61,0,0,0,1.06.65,1.13,1.13,0,0,0,.44-.26c.21-.18.45-.4.7-.65s.52-.55.8-.88.53-.68.76-1h.65V96Z" transform="translate(0 0)"/><path class="cls-4" d="M330.31,124.73v-.59a11.84,11.84,0,0,0,3.65-.79A4.07,4.07,0,0,0,335.9,122a2.08,2.08,0,0,0,.21-.71c.05-.35.1-.76.14-1.23s.07-1,.09-1.48,0-1,0-1.47c0-1.29.06-2.62.06-4v-9.3H313.18v12.66c0,1.13,0,2.23.06,3.29a4.18,4.18,0,0,0,.53,2.24,4.46,4.46,0,0,0,2,1.53,8.72,8.72,0,0,0,2.53.64v.59H300.94v-.59a12.29,12.29,0,0,0,2.82-.79,5.31,5.31,0,0,0,2.06-1.38,2.29,2.29,0,0,0,.38-1,13.61,13.61,0,0,0,.24-1.56q.09-.89.15-1.92c0-.68.06-1.34.06-2s0-1.29,0-2.23,0-2,.05-3.09,0-2.27,0-3.44v-17c0-.71,0-1.36-.08-2a11.84,11.84,0,0,0-.27-1.65,2.73,2.73,0,0,0-.53-1.15,4.65,4.65,0,0,0-2-1.44,12.29,12.29,0,0,0-2.74-.62v-.59h17.54V83a16.71,16.71,0,0,0-1.76.36,5.46,5.46,0,0,0-1.71.73,4.29,4.29,0,0,0-1.29,1.38,4.66,4.66,0,0,0-.59,2.24q-.06,2.06-.09,4.44t0,4.56v6h23.25V93.13c0-1,0-2.17-.06-3.47,0-.74-.09-1.52-.15-2.32a4.25,4.25,0,0,0-.56-2,4.46,4.46,0,0,0-2.41-2,12.16,12.16,0,0,0-2.71-.44v-.59h17.72V83a9.71,9.71,0,0,0-2.77.8,4.18,4.18,0,0,0-2,1.79,3.48,3.48,0,0,0-.35,1.15q-.12.74-.18,1.65c0,.61-.06,1.22-.06,1.85v19.24q0,1.65,0,3.42c0,1.17,0,2.47,0,3.88q0,1.71.09,3.15a4.41,4.41,0,0,0,.44,2,4.07,4.07,0,0,0,2.06,1.65,12.21,12.21,0,0,0,2.83.64v.59Z" transform="translate(0 0)"/><path class="cls-4" d="M405.06,124.73H369v-.59a11.67,11.67,0,0,0,2.73-.76,5.49,5.49,0,0,0,2.09-1.47,2.53,2.53,0,0,0,.47-1q.18-.67.33-1.56c.09-.59.16-1.21.2-1.85s.06-1.29.06-1.92,0-1.29,0-2.23,0-2,.06-3.09,0-2.27,0-3.44V91.9c0-.71,0-1.43,0-2.18s-.06-1.45-.12-2.12a12.18,12.18,0,0,0-.29-1.79,2.56,2.56,0,0,0-.56-1.15,4.07,4.07,0,0,0-1.88-1.21c-.67-.17-1.53-.34-2.59-.5v-.59h32.49l4,9.71-.59.3q-4.77-5.94-9-8a14.54,14.54,0,0,0-3.71-.82,53.09,53.09,0,0,0-6.59-.35c-.82,0-1.67,0-2.56.09a16.73,16.73,0,0,0-1.91.2c-.08.63-.15,1.92-.21,3.89s-.09,4.23-.09,6.82V98c0,1,0,1.85,0,2.5s0,1.15,0,1.5v.65h1.18c.59,0,1.27,0,2-.06s1.53-.09,2.3-.15a14.76,14.76,0,0,0,1.91-.26,10.32,10.32,0,0,0,2.94-1.12,6.5,6.5,0,0,0,1.92-1.71A8.15,8.15,0,0,0,395,97a28.65,28.65,0,0,0,.8-3h.7v18.53h-.7a21,21,0,0,0-1.44-3.88,10.12,10.12,0,0,0-2-3,7.86,7.86,0,0,0-2.26-1.36,10.23,10.23,0,0,0-3.09-.64l-1.47-.09-1.18,0h-2.71a18,18,0,0,0-.12,2.41V113q0,.95,0,1.8t0,1.44c0,1.26.11,2.44.21,3.56a5.56,5.56,0,0,0,.68,2.5,3.7,3.7,0,0,0,2.53,1.18,25.56,25.56,0,0,0,4.35.35c.67,0,1.52,0,2.56-.06s2.13-.14,3.27-.29a13,13,0,0,0,3.47-.91,12.28,12.28,0,0,0,3.06-1.92,19,19,0,0,0,2.86-3,40.5,40.5,0,0,0,2.85-4.32l.65.17Z" transform="translate(0 0)"/></svg>